<svg id="Layer_1" data-name="Layer 1" xmlns="http://www.w3.org/2000/svg" viewBox="0 0 64 64"><defs><style>.cls-1{fill:#b3b3b3;}.cls-2{fill:#333;}.cls-3{fill:#e6e6e6;}.cls-4{fill:#191919;}.cls-5{fill:#a5a5a5;}.cls-6{fill:#7f7f7f;}.cls-7{opacity:0.2;}</style></defs><title>technology_imac</title><rect class="cls-1" x="24" y="48" width="16" height="8"/><rect class="cls-2" y="4" width="64" height="48" rx="4.2" ry="4.2"/><path class="cls-3" d="M64,44v4a4,4,0,0,1-4,4H4a4,4,0,0,1-4-4V44Z"/><path class="cls-3" d="M44,58a2,2,0,0,1-2,2H22a2,2,0,0,1-2-2,2,2,0,0,1,2-2H42A2,2,0,0,1,44,58Z"/><rect class="cls-4" x="4" y="8" width="56" height="32"/><path class="cls-5" d="M54,12H51a1,1,0,0,0,0,2h3V27a1,1,0,0,0,2,0V14h0a2,2,0,0,0-2-2Z"/><rect class="cls-5" x="43" y="12" width="4" height="2" rx="1" ry="1"/><polygon class="cls-6" points="40 52 24 55 24 52 40 52"/><path class="cls-7" d="M32,4V60H22a2,2,0,0,1-2-2,2,2,0,0,1,2-2h2V52H4a4,4,0,0,1-4-4V8.2A4.2,4.2,0,0,1,4.2,4Z"/></svg>